<?xml version="1.0" encoding="UTF-8" standalone="no"?><!DOCTYPE svg PUBLIC "-//W3C//DTD SVG 1.1//EN" "http://www.w3.org/Graphics/SVG/1.1/DTD/svg11.dtd"><svg width="100%" height="100%" viewBox="0 0 58 36" version="1.1" xmlns="http://www.w3.org/2000/svg" xmlns:xlink="http://www.w3.org/1999/xlink" xml:space="preserve" xmlns:serif="http://www.serif.com/" style="fill-rule:evenodd;clip-rule:evenodd;stroke-linejoin:round;stroke-miterlimit:2;"><path d="M58,4c0,-2.208 -1.792,-4 -4,-4l-50,0c-2.208,0 -4,1.792 -4,4l0,28c0,2.208 1.792,4 4,4l50,0c2.208,0 4,-1.792 4,-4l0,-28Z" style="fill:#fff;"/><g transform="matrix(0.702864,0,0,0.702864,-9.75408,4.82893)"><text x="22.233px" y="16.909px" style="font-family:'HelveticaNowDisplay-XBlk', 'Helvetica Now Display', sans-serif;font-weight:950;font-size:12px;">B<tspan x="30.621px " y="16.909px ">A</tspan>NK</text><text x="22.233px" y="28.909px" style="font-family:'HelveticaNowDisplay-XBlk', 'Helvetica Now Display', sans-serif;font-weight:950;font-size:12px;">TRA<tspan x="47.301px " y="28.909px ">N</tspan>SFER</text></g><path d="M38.5,10.709l-6,0c-0.416,0 -0.746,0.334 -0.746,0.75l-0.004,4.5c0,0.416 0.334,0.75 0.75,0.75l6,0c0.416,0 0.75,-0.334 0.75,-0.75l0,-4.5c0,-0.416 -0.334,-0.75 -0.75,-0.75Zm0,5.25l-6,0l0,-2.25l6,0l0,2.25Zm0,-3.75l-6,0l0,-0.75l6,0l0,0.75Z" style="fill-rule:nonzero;"/></svg>