<?xml version="1.0" encoding="UTF-8" standalone="no"?><!DOCTYPE svg PUBLIC "-//W3C//DTD SVG 1.1//EN" "http://www.w3.org/Graphics/SVG/1.1/DTD/svg11.dtd"><svg width="100%" height="100%" viewBox="0 0 58 36" version="1.1" xmlns="http://www.w3.org/2000/svg" xmlns:xlink="http://www.w3.org/1999/xlink" xml:space="preserve" xmlns:serif="http://www.serif.com/" style="fill-rule:evenodd;clip-rule:evenodd;stroke-linejoin:round;stroke-miterlimit:2;"><path d="M58,4c0,-2.208 -1.792,-4 -4,-4l-50,0c-2.208,0 -4,1.792 -4,4l0,28c0,2.208 1.792,4 4,4l50,0c2.208,0 4,-1.792 4,-4l0,-28Z" style="fill:#f7931a;"/><path d="M38.018,15.648c0.378,-2.521 -1.543,-3.877 -4.168,-4.781l0.852,-3.417l-2.08,-0.518l-0.829,3.326c-0.547,-0.136 -1.108,-0.264 -1.666,-0.392l0.835,-3.348l-2.078,-0.518l-0.852,3.415c-0.453,-0.103 -0.897,-0.205 -1.328,-0.312l0.002,-0.011l-2.868,-0.716l-0.553,2.221c0,0 1.543,0.354 1.511,0.376c0.842,0.21 0.994,0.767 0.969,1.209l-0.971,3.892c0.058,0.014 0.134,0.036 0.217,0.069c-0.07,-0.017 -0.144,-0.036 -0.22,-0.055l-1.36,5.452c-0.103,0.256 -0.364,0.64 -0.953,0.494c0.021,0.03 -1.511,-0.377 -1.511,-0.377l-1.033,2.38l2.706,0.675c0.504,0.126 0.997,0.258 1.483,0.382l-0.861,3.456l2.077,0.518l0.853,-3.419c0.567,0.154 1.118,0.296 1.657,0.43l-0.85,3.403l2.08,0.518l0.86,-3.449c3.546,0.671 6.212,0.401 7.335,-2.806c0.904,-2.583 -0.045,-4.072 -1.911,-5.043c1.359,-0.314 2.382,-1.207 2.655,-3.054Zm-4.751,6.663c-0.642,2.582 -4.99,1.186 -6.4,0.836l1.142,-4.578c1.41,0.352 5.93,1.049 5.258,3.742Zm0.643,-6.7c-0.586,2.349 -4.205,1.156 -5.378,0.863l1.035,-4.152c1.174,0.293 4.954,0.839 4.343,3.289Z" style="fill:#fff;fill-rule:nonzero;"/></svg>