<?xml version="1.0" encoding="UTF-8" standalone="no"?><!DOCTYPE svg PUBLIC "-//W3C//DTD SVG 1.1//EN" "http://www.w3.org/Graphics/SVG/1.1/DTD/svg11.dtd"><svg width="100%" height="100%" viewBox="0 0 58 36" version="1.1" xmlns="http://www.w3.org/2000/svg" xmlns:xlink="http://www.w3.org/1999/xlink" xml:space="preserve" xmlns:serif="http://www.serif.com/" style="fill-rule:evenodd;clip-rule:evenodd;stroke-linejoin:round;stroke-miterlimit:2;"><path d="M58,4c0,-2.208 -1.792,-4 -4,-4l-50,0c-2.208,0 -4,1.792 -4,4l0,28c0,2.208 1.792,4 4,4l50,0c2.208,0 4,-1.792 4,-4l0,-28Z" style="fill:#fff;"/><g><path id="Google_Red" d="M29.756,20.485l6.971,-12.075l3.796,2.192c2.452,1.416 3.292,4.551 1.876,7.002l-3.925,6.798c-0.884,1.533 -2.844,2.057 -4.376,1.173l-3.523,-2.034c-1.07,-0.618 -1.437,-1.986 -0.819,-3.056Z" style="fill:url(#_Linear1);fill-rule:nonzero;"/><path id="Google_Yellow" d="M29.014,12.103l-8.671,15.018l3.796,2.191c2.452,1.416 5.587,0.576 7.002,-1.876l5.624,-9.741c0.885,-1.532 0.36,-3.492 -1.173,-4.376l-3.523,-2.034c-1.069,-0.618 -2.437,-0.252 -3.055,0.818Z" style="fill:#fdbd00;fill-rule:nonzero;"/><path id="Google_Green" d="M36.727,8.41l-2.686,-1.551c-3.065,-1.769 -6.984,-0.719 -8.753,2.346l-4.983,8.631c-0.885,1.533 -0.36,3.492 1.172,4.377l2.687,1.551c1.532,0.884 3.491,0.359 4.376,-1.173l5.95,-10.305c1.235,-2.141 3.972,-2.874 6.113,-1.638" style="fill:#2da94f;fill-rule:nonzero;"/><path id="Google_Blue" d="M26.061,11.735l-2.964,-1.708c-1.322,-0.761 -3.012,-0.31 -3.775,1.009l-3.558,6.147c-1.752,3.026 -0.712,6.896 2.322,8.643l2.257,1.3l2.738,1.577l1.188,0.683c-2.11,-1.412 -2.779,-4.241 -1.489,-6.468l0.92,-1.59l3.373,-5.828c0.763,-1.318 0.31,-3.004 -1.012,-3.765Z" style="fill:url(#_Linear2);fill-rule:nonzero;"/></g><defs><linearGradient id="_Linear1" x1="0" y1="0" x2="1" y2="0" gradientUnits="userSpaceOnUse" gradientTransform="matrix(10.3449,3.76523,-3.76523,10.3449,31.4992,15.5948)"><stop offset="0" style="stop-color:#d93025;stop-opacity:1"/><stop offset="0.2" style="stop-color:#d93025;stop-opacity:1"/><stop offset="0.6" style="stop-color:#ea4335;stop-opacity:1"/><stop offset="1" style="stop-color:#ea4335;stop-opacity:1"/></linearGradient><linearGradient id="_Linear2" x1="0" y1="0" x2="1" y2="0" gradientUnits="userSpaceOnUse" gradientTransform="matrix(11.5241,4.19443,-4.19443,11.5241,15.7941,16.813)"><stop offset="0" style="stop-color:#4285f4;stop-opacity:1"/><stop offset="0.2" style="stop-color:#4285f4;stop-opacity:1"/><stop offset="0.8" style="stop-color:#1b74e8;stop-opacity:1"/><stop offset="1" style="stop-color:#1b74e8;stop-opacity:1"/></linearGradient></defs></svg>