<?xml version="1.0" encoding="UTF-8" standalone="no"?><!DOCTYPE svg PUBLIC "-//W3C//DTD SVG 1.1//EN" "http://www.w3.org/Graphics/SVG/1.1/DTD/svg11.dtd"><svg width="100%" height="100%" viewBox="0 0 58 36" version="1.1" xmlns="http://www.w3.org/2000/svg" xmlns:xlink="http://www.w3.org/1999/xlink" xml:space="preserve" xmlns:serif="http://www.serif.com/" style="fill-rule:evenodd;clip-rule:evenodd;stroke-linejoin:round;stroke-miterlimit:2;"><path d="M58,4c0,-2.208 -1.792,-4 -4,-4l-50,0c-2.208,0 -4,1.792 -4,4l0,28c0,2.208 1.792,4 4,4l50,0c2.208,0 4,-1.792 4,-4l0,-28Z" style="fill:url(#_Linear1);"/><g><path d="M37.159,12.098c0.293,-1.867 -0.002,-3.138 -1.011,-4.288c-1.112,-1.267 -3.121,-1.81 -5.69,-1.81l-7.46,0c-0.525,0 -0.972,0.382 -1.054,0.901l-3.106,19.696c-0.061,0.389 0.24,0.74 0.633,0.74l4.605,0l-0.318,2.016c-0.054,0.34 0.209,0.647 0.553,0.647l3.882,0c0.459,0 0.85,-0.334 0.922,-0.788l0.038,-0.198l0.731,-4.636l0.047,-0.257c0.072,-0.453 0.463,-0.788 0.922,-0.788l0.581,0c3.76,0 6.705,-1.527 7.565,-5.946c0.36,-1.846 0.173,-3.387 -0.777,-4.47c-0.287,-0.328 -0.645,-0.598 -1.063,-0.819" style="fill:#fff;fill-opacity:0.68;fill-rule:nonzero;"/><path d="M37.159,12.098c0.293,-1.867 -0.002,-3.138 -1.011,-4.288c-1.112,-1.267 -3.121,-1.81 -5.69,-1.81l-7.46,0c-0.525,0 -0.972,0.382 -1.054,0.901l-3.106,19.696c-0.061,0.389 0.24,0.74 0.633,0.74l4.605,0l1.156,-7.335l-0.035,0.23c0.081,-0.519 0.524,-0.901 1.05,-0.901l2.189,0c4.298,0 7.664,-1.746 8.647,-6.797c0.029,-0.149 0.054,-0.294 0.076,-0.436" style="fill:#fff;fill-opacity:0.7;fill-rule:nonzero;"/><path d="M26.475,12.123c0.049,-0.312 0.249,-0.569 0.519,-0.697c0.123,-0.059 0.26,-0.092 0.403,-0.092l5.848,0c0.692,0 1.338,0.046 1.929,0.141c0.168,0.027 0.333,0.058 0.492,0.094c0.159,0.035 0.314,0.074 0.464,0.119c0.075,0.021 0.149,0.045 0.221,0.069c0.29,0.096 0.56,0.209 0.809,0.341c0.292,-1.867 -0.002,-3.137 -1.012,-4.288c-1.112,-1.267 -3.121,-1.81 -5.69,-1.81l-7.46,0c-0.525,0 -0.972,0.382 -1.054,0.901l-3.106,19.696c-0.061,0.389 0.24,0.74 0.633,0.74l4.605,0l1.156,-7.335l1.243,-7.879Z" style="fill:#fff;fill-rule:nonzero;"/></g><defs><linearGradient id="_Linear1" x1="0" y1="0" x2="1" y2="0" gradientUnits="userSpaceOnUse" gradientTransform="matrix(58,0,0,36,0,18)"><stop offset="0" style="stop-color:#0394de;stop-opacity:1"/><stop offset="1" style="stop-color:#003082;stop-opacity:1"/></linearGradient></defs></svg>