<?xml version="1.0" encoding="UTF-8" standalone="no"?><!DOCTYPE svg PUBLIC "-//W3C//DTD SVG 1.1//EN" "http://www.w3.org/Graphics/SVG/1.1/DTD/svg11.dtd"><svg width="100%" height="100%" viewBox="0 0 58 36" version="1.1" xmlns="http://www.w3.org/2000/svg" xmlns:xlink="http://www.w3.org/1999/xlink" xml:space="preserve" xmlns:serif="http://www.serif.com/" style="fill-rule:evenodd;clip-rule:evenodd;stroke-linejoin:round;stroke-miterlimit:2;"><path d="M58,4c0,-2.208 -1.792,-4 -4,-4l-50,0c-2.208,0 -4,1.792 -4,4l0,28c0,2.208 1.792,4 4,4l50,0c2.208,0 4,-1.792 4,-4l0,-28Z" style="fill:#3396cd;"/><g><path d="M13.561,13.627c0.31,0.513 0.451,1.041 0.451,1.708c0,2.129 -1.818,4.894 -3.292,6.836l-3.369,0l-1.351,-8.078l2.95,-0.28l0.714,5.748c0.667,-1.087 1.491,-2.796 1.491,-3.961c0,-0.638 -0.109,-1.072 -0.28,-1.43l2.686,-0.543Z" style="fill:#fff;fill-rule:nonzero;"/><path d="M17.384,17.184c0.542,0 1.909,-0.248 1.909,-1.025c0,-0.373 -0.264,-0.559 -0.575,-0.559c-0.543,0 -1.257,0.652 -1.334,1.584Zm-0.063,1.538c0,0.948 0.528,1.32 1.227,1.32c0.761,0 1.49,-0.186 2.437,-0.667l-0.356,2.423c-0.668,0.326 -1.708,0.544 -2.718,0.544c-2.561,0 -3.478,-1.554 -3.478,-3.495c0,-2.517 1.491,-5.19 4.565,-5.19c1.693,0 2.639,0.949 2.639,2.269c0,2.129 -2.732,2.781 -4.316,2.796Z" style="fill:#fff;fill-rule:nonzero;"/><path d="M30.149,15.522c0,0.311 -0.047,0.762 -0.094,1.056l-0.885,5.593l-2.872,0l0.807,-5.127c0.016,-0.139 0.063,-0.419 0.063,-0.574c0,-0.373 -0.233,-0.466 -0.513,-0.466c-0.372,0 -0.745,0.17 -0.994,0.295l-0.915,5.872l-2.889,0l1.32,-8.373l2.5,0l0.031,0.668c0.59,-0.388 1.367,-0.808 2.468,-0.808c1.46,-0.001 1.973,0.745 1.973,1.864Z" style="fill:#fff;fill-rule:nonzero;"/><path d="M38.676,14.574c0.822,-0.59 1.599,-0.917 2.67,-0.917c1.475,0 1.988,0.746 1.988,1.865c0,0.311 -0.047,0.762 -0.094,1.056l-0.884,5.593l-2.873,0l0.823,-5.235c0.015,-0.14 0.046,-0.311 0.046,-0.419c0,-0.42 -0.233,-0.513 -0.513,-0.513c-0.356,0 -0.713,0.155 -0.978,0.295l-0.915,5.872l-2.872,0l0.822,-5.235c0.016,-0.14 0.046,-0.311 0.046,-0.419c0,-0.42 -0.233,-0.513 -0.512,-0.513c-0.373,0 -0.745,0.171 -0.993,0.295l-0.917,5.872l-2.887,0l1.319,-8.373l2.47,0l0.077,0.699c0.575,-0.419 1.351,-0.839 2.391,-0.839c0.9,-0.001 1.49,0.388 1.786,0.916Z" style="fill:#fff;fill-rule:nonzero;"/><path d="M49.049,17.013c0,-0.683 -0.171,-1.149 -0.682,-1.149c-1.134,0 -1.367,2.004 -1.367,3.029c0,0.777 0.218,1.259 0.73,1.259c1.071,0 1.319,-2.114 1.319,-3.139Zm-4.967,1.756c0,-2.641 1.397,-5.112 4.611,-5.112c2.422,0 3.307,1.43 3.307,3.403c0,2.61 -1.382,5.313 -4.674,5.313c-2.437,0 -3.244,-1.6 -3.244,-3.604Z" style="fill:#fff;fill-rule:nonzero;"/></g></svg>