<?xml version="1.0" encoding="UTF-8" standalone="no"?><!DOCTYPE svg PUBLIC "-//W3C//DTD SVG 1.1//EN" "http://www.w3.org/Graphics/SVG/1.1/DTD/svg11.dtd"><svg width="100%" height="100%" viewBox="0 0 58 36" version="1.1" xmlns="http://www.w3.org/2000/svg" xmlns:xlink="http://www.w3.org/1999/xlink" xml:space="preserve" xmlns:serif="http://www.serif.com/" style="fill-rule:evenodd;clip-rule:evenodd;stroke-linejoin:round;stroke-miterlimit:2;"><path d="M58,4c0,-2.208 -1.792,-4 -4,-4l-50,0c-2.208,0 -4,1.792 -4,4l0,28c0,2.208 1.792,4 4,4l50,0c2.208,0 4,-1.792 4,-4l0,-28Z" style="fill:#6c1cd3;"/><g><path id="path6" d="M10.479,10.818l-4.206,-0.038l0,2.789l6.97,0l-7.243,9.284l0,2.361l4.479,0l0,2.719l2.687,0l0,-2.719l4.568,0c0.038,-0.109 0.052,-0.402 -0.191,-0.671c-0.403,-0.448 -0.724,-0.916 -1.018,-1.505c-0.135,-0.262 -0.237,-0.576 -0.275,-0.602c-0.9,-0.041 -6.075,-0.03 -6.072,-0.063l7.249,-9.34l0,-2.215l-4.261,0l0,-2.751l-2.687,0l0,2.751Z" style="fill:#fff;fill-rule:nonzero;"/><path id="path8" d="M29.884,9.519c-0.064,0.026 -0.083,1.44 -0.083,6.795c0,7.236 -0.007,7.115 0.313,7.735c0.288,0.557 0.992,1.056 1.779,1.261c0.435,0.115 1.714,0.128 2.207,0.025c0.633,-0.134 0.755,-0.326 0.505,-0.819c-0.16,-0.307 -0.371,-0.979 -0.422,-1.35c-0.07,-0.441 -0.16,-0.511 -0.697,-0.499c-0.256,0.007 -0.499,-0.012 -0.544,-0.038c-0.262,-0.166 -0.262,-0.211 -0.262,-6.692c0,-4.165 -0.02,-6.258 -0.064,-6.341c-0.064,-0.115 -0.148,-0.121 -1.363,-0.115c-0.71,0 -1.331,0.019 -1.369,0.038Z" style="fill:#fff;fill-rule:nonzero;"/><path id="path10" d="M35.751,9.539c-0.084,0.051 -0.096,0.87 -0.096,6.73c0,6.315 0.006,6.699 0.121,7.141c0.218,0.87 0.71,1.401 1.645,1.791c0.358,0.147 0.518,0.173 1.241,0.192c0.966,0.025 1.458,-0.045 1.951,-0.294c0.486,-0.237 0.499,-0.403 0.083,-1.011c-0.166,-0.243 -0.422,-0.659 -0.563,-0.922l-0.256,-0.479l-0.467,-0.007c-0.582,-0.013 -0.639,-0.038 -0.748,-0.313c-0.083,-0.186 -0.096,-1.139 -0.096,-6.43c0,-4.165 -0.019,-6.258 -0.064,-6.341c-0.064,-0.115 -0.147,-0.121 -1.363,-0.121c-0.71,0 -1.337,0.032 -1.388,0.064Z" style="fill:#fff;fill-rule:nonzero;"/><path id="path16" d="M21.835,13.537c-0.032,0.013 -0.281,0.071 -0.544,0.128c-1.644,0.378 -3.096,1.638 -3.711,3.238c-0.339,0.883 -0.46,1.567 -0.467,2.585c-0.006,1.426 0.282,2.476 0.941,3.474c0.742,1.119 1.83,1.881 3.237,2.265c0.48,0.127 0.691,0.147 1.792,0.147c1.087,0 1.311,-0.02 1.765,-0.141c1.127,-0.314 2.086,-0.832 2.86,-1.568c0.493,-0.46 0.487,-0.588 -0.012,-0.972c-0.205,-0.16 -0.576,-0.506 -0.819,-0.774c-0.307,-0.327 -0.493,-0.48 -0.589,-0.48c-0.09,0 -0.294,0.128 -0.493,0.32c-0.684,0.62 -1.548,0.915 -2.68,0.908c-1.037,-0.006 -1.792,-0.275 -2.272,-0.825c-0.243,-0.275 -0.55,-0.902 -0.614,-1.254l-0.038,-0.237l3.986,0c2.194,0 4.03,-0.025 4.075,-0.057c0.211,-0.135 0.263,-1.062 0.109,-2.073c-0.365,-2.419 -1.811,-4.044 -4.082,-4.588c-0.403,-0.096 -0.736,-0.128 -1.452,-0.121c-0.512,0 -0.954,0.013 -0.992,0.025Zm1.708,2.47c0.467,0.096 1.043,0.416 1.312,0.723c0.249,0.282 0.505,0.787 0.569,1.113l0.045,0.205l-2.61,0l-2.604,0l0.045,-0.205c0.191,-0.863 0.934,-1.586 1.855,-1.817c0.409,-0.102 0.96,-0.109 1.388,-0.019Z" style="fill:#fff;fill-rule:nonzero;"/><path id="path18" d="M45.092,13.595c-2.272,0.505 -3.807,2.105 -4.287,4.466c-0.288,1.395 -0.128,3.02 0.416,4.184c0.742,1.612 2.092,2.655 3.935,3.033c0.582,0.121 0.812,0.134 1.727,0.108c0.774,-0.025 1.19,-0.07 1.548,-0.166c1.095,-0.288 2.054,-0.812 2.79,-1.516c0.563,-0.544 0.563,-0.57 -0.045,-1.075c-0.281,-0.23 -0.659,-0.595 -0.838,-0.806c-0.416,-0.48 -0.525,-0.486 -0.992,-0.064c-0.697,0.633 -1.529,0.915 -2.687,0.908c-1.625,-0.006 -2.572,-0.703 -2.879,-2.111l-0.045,-0.166l8.107,0c0.275,-0.198 0.172,-2.297 -0.16,-3.27c-0.064,-0.192 -0.237,-0.576 -0.378,-0.844c-0.748,-1.433 -1.945,-2.323 -3.608,-2.675c-0.531,-0.115 -2.099,-0.115 -2.604,-0.006Zm1.996,2.412c0.435,0.096 0.883,0.32 1.203,0.608c0.268,0.249 0.704,1.036 0.704,1.279l0,0.154l-5.196,0l0.045,-0.179c0.333,-1.369 1.74,-2.182 3.244,-1.862Z" style="fill:#fff;fill-rule:nonzero;"/></g></svg>